{
  "accessors": [
    {
      "bufferView": 2,
      "componentType": 5126,
      "count": 510,
      "max": [
        0.6292800307273865,
        0.44990432262420654,
        0.41306403279304504
      ],
      "min": [
        -0.6267394423484802,
        0.2656034529209137,
        -0.4218062460422516
      ],
      "type": "VEC3"
    },
    {
      "bufferView": 2,
      "byteOffset": 6120,
      "componentType": 5126,
      "count": 510,
      "max": [
        0.9957244992256165,
        0.9967304468154907,
        0.9957242608070374
      ],
      "min": [
        -0.9957245588302612,
        -0.996730625629425,
        -0.9957241415977478
      ],
      "type": "VEC3"
    },
    {
      "bufferView": 1,
      "componentType": 5126,
      "count": 510,
      "max": [
        1.0,
        1.0
      ],
      "min": [
        0.0,
        0.0
      ],
      "type": "VEC2"
    },
    {
      "bufferView": 0,
      "componentType": 5125,
      "count": 2580,
      "type": "SCALAR"
    },
    {
      "bufferView": 2,
      "byteOffset": 12240,
      "componentType": 5126,
      "count": 510,
      "max": [
        0.6292800307273865,
        0.44990432262420654,
        0.41306403279304504
      ],
      "min": [
        -0.6267394423484802,
        0.2656034529209137,
        -0.4218062460422516
      ],
      "type": "VEC3"
    },
    {
      "bufferView": 2,
      "byteOffset": 18360,
      "componentType": 5126,
      "count": 510,
      "max": [
        0.9957244992256165,
        0.9967304468154907,
        0.9957242608070374
      ],
      "min": [
        -0.9957245588302612,
        -0.996730625629425,
        -0.9957241415977478
      ],
      "type": "VEC3"
    },
    {
      "bufferView": 1,
      "byteOffset": 4080,
      "componentType": 5126,
      "count": 510,
      "max": [
        1.0,
        1.0
      ],
      "min": [
        0.0,
        0.0
      ],
      "type": "VEC2"
    },
    {
      "bufferView": 0,
      "byteOffset": 10320,
      "componentType": 5125,
      "count": 2580,
      "type": "SCALAR"
    },
    {
      "bufferView": 2,
      "byteOffset": 24480,
      "componentType": 5126,
      "count": 17395,
      "max": [
        1.240115761756897,
        0.5166548490524292,
        1.2401158809661865
      ],
      "min": [
        -1.240115761756897,
        -0.3401590585708618,
        -1.2401158809661865
      ],
      "type": "VEC3"
    },
    {
      "bufferView": 2,
      "byteOffset": 233220,
      "componentType": 5126,
      "count": 17395,
      "max": [
        1.0,
        1.0,
        1.0
      ],
      "min": [
        -1.0,
        -1.0,
        -1.0
      ],
      "type": "VEC3"
    },
    {
      "bufferView": 1,
      "byteOffset": 8160,
      "componentType": 5126,
      "count": 17395,
      "max": [
        1.0000001192092896,
        1.0000001192092896
      ],
      "min": [
        0.0,
        0.0
      ],
      "type": "VEC2"
    },
    {
      "bufferView": 0,
      "byteOffset": 20640,
      "componentType": 5125,
      "count": 91392,
      "type": "SCALAR"
    },
    {
      "bufferView": 2,
      "byteOffset": 441960,
      "componentType": 5126,
      "count": 199,
      "max": [
        0.2688196301460266,
        0.5166548490524292,
        0.20895184576511383
      ],
      "min": [
        -0.15492035448551178,
        0.41313958168029785,
        -0.20950455963611603
      ],
      "type": "VEC3"
    },
    {
      "bufferView": 2,
      "byteOffset": 444348,
      "componentType": 5126,
      "count": 199,
      "max": [
        1.0,
        0.026119045913219452,
        0.9910557866096497
      ],
      "min": [
        -0.9996588826179504,
        -0.9981123805046082,
        -0.9910566806793213
      ],
      "type": "VEC3"
    },
    {
      "bufferView": 1,
      "byteOffset": 147320,
      "componentType": 5126,
      "count": 199,
      "max": [
        1.0,
        1.0
      ],
      "min": [
        0.0,
        0.0
      ],
      "type": "VEC2"
    },
    {
      "bufferView": 0,
      "byteOffset": 386208,
      "componentType": 5125,
      "count": 768,
      "type": "SCALAR"
    }
  ],
  "asset": {
    "extras": {
      "author": "CobyPal (https://sketchfab.com/cobyp)",
      "license": "CC-BY-4.0 (http://creativecommons.org/licenses/by/4.0/)",
      "source": "https://sketchfab.com/3d-models/youtube-icon-two-sided-12acb77dcf354cb490f47ae3e72000d5",
      "title": "YouTube Icon- Two Sided"
    },
    "generator": "Sketchfab-16.99.0",
    "version": "2.0"
  },
  "bufferViews": [
    {
      "buffer": 0,
      "byteLength": 389280,
      "name": "floatBufferViews",
      "target": 34963
    },
    {
      "buffer": 0,
      "byteLength": 148912,
      "byteOffset": 389280,
      "byteStride": 8,
      "name": "floatBufferViews",
      "target": 34962
    },
    {
      "buffer": 0,
      "byteLength": 446736,
      "byteOffset": 538192,
      "byteStride": 12,
      "name": "floatBufferViews",
      "target": 34962
    }
  ],
  "buffers": [
    {
      "byteLength": 984928,
      "uri": "scene.bin"
    }
  ],
  "materials": [
    {
      "doubleSided": true,
      "name": "glossy_putih",
      "pbrMetallicRoughness": {
        "baseColorFactor": [
          0.8,
          0.8,
          0.8,
          1.0
        ],
        "metallicFactor": 0.0,
        "roughnessFactor": 0.2
      }
    },
    {
      "doubleSided": true,
      "name": "GLOSSY_YT",
      "pbrMetallicRoughness": {
        "baseColorFactor": [
          0.799103,
          0.0176418,
          0.00749906,
          1.0
        ],
        "metallicFactor": 0.0,
        "roughnessFactor": 0.2
      }
    }
  ],
  "meshes": [
    {
      "name": "Object_0",
      "primitives": [
        {
          "attributes": {
            "NORMAL": 1,
            "POSITION": 0,
            "TEXCOORD_0": 2
          },
          "indices": 3,
          "material": 0,
          "mode": 4
        }
      ]
    },
    {
      "name": "Object_1",
      "primitives": [
        {
          "attributes": {
            "NORMAL": 5,
            "POSITION": 4,
            "TEXCOORD_0": 6
          },
          "indices": 7,
          "material": 0,
          "mode": 4
        }
      ]
    },
    {
      "name": "Object_2",
      "primitives": [
        {
          "attributes": {
            "NORMAL": 9,
            "POSITION": 8,
            "TEXCOORD_0": 10
          },
          "indices": 11,
          "material": 1,
          "mode": 4
        }
      ]
    },
    {
      "name": "Object_3",
      "primitives": [
        {
          "attributes": {
            "NORMAL": 13,
            "POSITION": 12,
            "TEXCOORD_0": 14
          },
          "indices": 15,
          "material": 1,
          "mode": 4
        }
      ]
    }
  ],
  "nodes": [
    {
      "children": [
        1
      ],
      "matrix": [
        1.0,
        0.0,
        0.0,
        0.0,
        0.0,
        2.220446049250313e-16,
        -1.0,
        0.0,
        0.0,
        1.0,
        2.220446049250313e-16,
        0.0,
        0.0,
        0.0,
        0.0,
        1.0
      ],
      "name": "Sketchfab_model"
    },
    {
      "children": [
        2
      ],
      "name": "root"
    },
    {
      "children": [
        3
      ],
      "matrix": [
        1.0,
        0.0,
        0.0,
        0.0,
        0.0,
        2.220446049250313e-16,
        1.0,
        0.0,
        0.0,
        -1.0,
        2.220446049250313e-16,
        0.0,
        0.0,
        0.0,
        0.0,
        1.0
      ],
      "name": "GLTF_SceneRootNode"
    },
    {
      "children": [
        4
      ],
      "matrix": [
        1.0,
        0.0,
        -0.0,
        0.0,
        -0.0,
        0.0,
        -1.0,
        0.0,
        0.0,
        1.0,
        0.0,
        0.0,
        0.0,
        0.0,
        0.0,
        1.0
      ],
      "name": "Sketchfab_model_7"
    },
    {
      "children": [
        5
      ],
      "name": "root_6"
    },
    {
      "children": [
        6
      ],
      "matrix": [
        1.0,
        0.0,
        0.0,
        0.0,
        0.0,
        0.0,
        1.0,
        0.0,
        0.0,
        -1.0,
        0.0,
        0.0,
        0.0,
        0.0,
        0.0,
        1.0
      ],
      "name": "GLTF_SceneRootNode_5"
    },
    {
      "children": [
        7,
        9,
        11,
        13
      ],
      "matrix": [
        0.8430913090705872,
        0.0,
        0.0,
        0.0,
        0.0,
        0.0,
        0.8430913090705872,
        0.0,
        0.0,
        -0.8430910706520081,
        0.0,
        0.0,
        0.0,
        3.0,
        6.0,
        1.0
      ],
      "name": "Cylinder.040_0_4"
    },
    {
      "children": [
        8
      ],
      "name": "Object_4_0"
    },
    {
      "mesh": 0,
      "name": "Object_8"
    },
    {
      "children": [
        10
      ],
      "matrix": [
        1.0,
        0.0,
        0.0,
        0.0,
        0.0,
        1.0,
        0.0,
        0.0,
        0.0,
        0.0,
        1.0,
        0.0,
        0.0,
        -0.7388874888420105,
        0.0,
        1.0
      ],
      "name": "Object_4.001_1"
    },
    {
      "mesh": 1,
      "name": "Object_10"
    },
    {
      "children": [
        12
      ],
      "name": "Object_5_2"
    },
    {
      "mesh": 2,
      "name": "Object_12"
    },
    {
      "children": [
        14
      ],
      "matrix": [
        -0.9999965633767292,
        0.0026216854752670682,
        0.0,
        0.0,
        -0.0026216854752670682,
        -0.9999965633767292,
        -0.0,
        0.0,
        0.0,
        0.0,
        1.0,
        0.0,
        0.014738351106643677,
        -0.037687063217163086,
        -0.033081769943237305,
        1.0
      ],
      "name": "Object_5.001_3"
    },
    {
      "mesh": 3,
      "name": "Object_14"
    }
  ],
  "scene": 0,
  "scenes": [
    {
      "name": "Sketchfab_Scene",
      "nodes": [
        0
      ]
    }
  ]
}
