{
  "accessors": [
    {
      "bufferView": 2,
      "componentType": 5126,
      "count": 17196,
      "max": [
        1.24868905544281,
        0.2712618410587311,
        1.2196584939956665
      ],
      "min": [
        -1.2315424680709839,
        -0.4090571403503418,
        -1.2605732679367065
      ],
      "type": "VEC3"
    },
    {
      "bufferView": 2,
      "byteOffset": 206352,
      "componentType": 5126,
      "count": 17196,
      "max": [
        1.0,
        1.0,
        1.0
      ],
      "min": [
        -1.0,
        -1.0,
        -1.0
      ],
      "type": "VEC3"
    },
    {
      "bufferView": 1,
      "componentType": 5126,
      "count": 17196,
      "max": [
        1.0000001192092896,
        1.0000001192092896
      ],
      "min": [
        0.0,
        0.0
      ],
      "type": "VEC2"
    },
    {
      "bufferView": 0,
      "componentType": 5125,
      "count": 90624,
      "type": "SCALAR"
    },
    {
      "bufferView": 2,
      "byteOffset": 412704,
      "componentType": 5126,
      "count": 2086,
      "max": [
        0.5011606216430664,
        0.34342020750045776,
        0.4751898944377899
      ],
      "min": [
        -0.4755805730819702,
        0.19674529135227203,
        -0.5013481974601746
      ],
      "type": "VEC3"
    },
    {
      "bufferView": 2,
      "byteOffset": 437736,
      "componentType": 5126,
      "count": 2086,
      "max": [
        0.9969245195388794,
        1.0,
        0.9969239234924316
      ],
      "min": [
        -0.9969236850738525,
        -1.0,
        -0.9969248175621033
      ],
      "type": "VEC3"
    },
    {
      "bufferView": 1,
      "byteOffset": 137568,
      "componentType": 5126,
      "count": 2086,
      "max": [
        1.0,
        1.0
      ],
      "min": [
        0.0,
        0.0
      ],
      "type": "VEC2"
    },
    {
      "bufferView": 0,
      "byteOffset": 362496,
      "componentType": 5125,
      "count": 9540,
      "type": "SCALAR"
    },
    {
      "bufferView": 2,
      "byteOffset": 462768,
      "componentType": 5126,
      "count": 2086,
      "max": [
        0.5011606216430664,
        0.34342020750045776,
        0.4751898944377899
      ],
      "min": [
        -0.4755805730819702,
        0.19674529135227203,
        -0.5013481974601746
      ],
      "type": "VEC3"
    },
    {
      "bufferView": 2,
      "byteOffset": 487800,
      "componentType": 5126,
      "count": 2086,
      "max": [
        0.9969245195388794,
        1.0,
        0.9969239234924316
      ],
      "min": [
        -0.9969236850738525,
        -1.0,
        -0.9969248175621033
      ],
      "type": "VEC3"
    },
    {
      "bufferView": 1,
      "byteOffset": 154256,
      "componentType": 5126,
      "count": 2086,
      "max": [
        1.0,
        1.0
      ],
      "min": [
        0.0,
        0.0
      ],
      "type": "VEC2"
    },
    {
      "bufferView": 0,
      "byteOffset": 400656,
      "componentType": 5125,
      "count": 9540,
      "type": "SCALAR"
    }
  ],
  "asset": {
    "extras": {
      "author": "CobyPal (https://sketchfab.com/cobyp)",
      "license": "CC-BY-4.0 (http://creativecommons.org/licenses/by/4.0/)",
      "source": "https://sketchfab.com/3d-models/linkedin-icon-two-sided-afc6da52ec2945adb89ac4ef14f1fe65",
      "title": "LinkedIn Icon - Two Sided"
    },
    "generator": "Sketchfab-16.99.0",
    "version": "2.0"
  },
  "bufferViews": [
    {
      "buffer": 0,
      "byteLength": 438816,
      "name": "floatBufferViews",
      "target": 34963
    },
    {
      "buffer": 0,
      "byteLength": 170944,
      "byteOffset": 438816,
      "byteStride": 8,
      "name": "floatBufferViews",
      "target": 34962
    },
    {
      "buffer": 0,
      "byteLength": 512832,
      "byteOffset": 609760,
      "byteStride": 12,
      "name": "floatBufferViews",
      "target": 34962
    }
  ],
  "buffers": [
    {
      "byteLength": 1122592,
      "uri": "scene.bin"
    }
  ],
  "materials": [
    {
      "doubleSided": true,
      "name": "glossy_linkedin",
      "pbrMetallicRoughness": {
        "baseColorFactor": [
          0.021219,
          0.135633,
          0.445201,
          1.0
        ],
        "metallicFactor": 0.0,
        "roughnessFactor": 0.2
      }
    },
    {
      "doubleSided": true,
      "name": "glossy_putih",
      "pbrMetallicRoughness": {
        "baseColorFactor": [
          0.8,
          0.8,
          0.8,
          1.0
        ],
        "metallicFactor": 0.0,
        "roughnessFactor": 0.2
      }
    }
  ],
  "meshes": [
    {
      "name": "Object_0",
      "primitives": [
        {
          "attributes": {
            "NORMAL": 1,
            "POSITION": 0,
            "TEXCOORD_0": 2
          },
          "indices": 3,
          "material": 0,
          "mode": 4
        }
      ]
    },
    {
      "name": "Object_1",
      "primitives": [
        {
          "attributes": {
            "NORMAL": 5,
            "POSITION": 4,
            "TEXCOORD_0": 6
          },
          "indices": 7,
          "material": 1,
          "mode": 4
        }
      ]
    },
    {
      "name": "Object_2",
      "primitives": [
        {
          "attributes": {
            "NORMAL": 9,
            "POSITION": 8,
            "TEXCOORD_0": 10
          },
          "indices": 11,
          "material": 1,
          "mode": 4
        }
      ]
    }
  ],
  "nodes": [
    {
      "children": [
        1
      ],
      "matrix": [
        1.0,
        0.0,
        0.0,
        0.0,
        0.0,
        2.220446049250313e-16,
        -1.0,
        0.0,
        0.0,
        1.0,
        2.220446049250313e-16,
        0.0,
        0.0,
        0.0,
        0.0,
        1.0
      ],
      "name": "Sketchfab_model"
    },
    {
      "children": [
        2
      ],
      "name": "root"
    },
    {
      "children": [
        3
      ],
      "matrix": [
        1.0,
        0.0,
        0.0,
        0.0,
        0.0,
        2.220446049250313e-16,
        1.0,
        0.0,
        0.0,
        -1.0,
        2.220446049250313e-16,
        0.0,
        0.0,
        0.0,
        0.0,
        1.0
      ],
      "name": "GLTF_SceneRootNode"
    },
    {
      "children": [
        4
      ],
      "matrix": [
        1.0,
        0.0,
        -0.0,
        0.0,
        -0.0,
        0.0,
        -1.0,
        0.0,
        0.0,
        1.0,
        0.0,
        0.0,
        0.0,
        0.0,
        0.0,
        1.0
      ],
      "name": "Sketchfab_model_6"
    },
    {
      "children": [
        5
      ],
      "name": "root_5"
    },
    {
      "children": [
        6
      ],
      "matrix": [
        1.0,
        0.0,
        0.0,
        0.0,
        0.0,
        0.0,
        1.0,
        0.0,
        0.0,
        -1.0,
        0.0,
        0.0,
        0.0,
        0.0,
        0.0,
        1.0
      ],
      "name": "GLTF_SceneRootNode_4"
    },
    {
      "children": [
        7,
        9,
        11
      ],
      "matrix": [
        0.8430913090705872,
        0.0,
        0.0,
        0.0,
        0.0,
        0.0,
        0.8430913090705872,
        0.0,
        0.0,
        -0.8430910706520081,
        0.0,
        0.0,
        0.0,
        3.0,
        6.0,
        1.0
      ],
      "name": "Cylinder.007_0_3"
    },
    {
      "children": [
        8
      ],
      "name": "Object_4_0"
    },
    {
      "mesh": 0,
      "name": "Object_8"
    },
    {
      "children": [
        10
      ],
      "name": "Object_5_1"
    },
    {
      "mesh": 1,
      "name": "Object_10"
    },
    {
      "children": [
        12
      ],
      "matrix": [
        -0.9999717205053442,
        -0.0075205179064928695,
        -0.0,
        0.0,
        0.0075205179064928695,
        -0.9999717205053442,
        0.0,
        0.0,
        0.0,
        -0.0,
        1.0,
        0.0,
        0.0,
        -0.14260855317115784,
        0.0,
        1.0
      ],
      "name": "Object_5.001_2"
    },
    {
      "mesh": 2,
      "name": "Object_12"
    }
  ],
  "scene": 0,
  "scenes": [
    {
      "name": "Sketchfab_Scene",
      "nodes": [
        0
      ]
    }
  ]
}
