{
  "accessors": [
    {
      "bufferView": 2,
      "componentType": 5126,
      "count": 1177,
      "max": [
        0.021953053772449493,
        0.015254760161042213,
        0.025365062057971954
      ],
      "min": [
        -0.0017829518765211105,
        0.008254759013652802,
        -0.01941034197807312
      ],
      "type": "VEC3"
    },
    {
      "bufferView": 2,
      "byteOffset": 14124,
      "componentType": 5126,
      "count": 1177,
      "max": [
        0.9968296885490417,
        1.0,
        0.9969176650047302
      ],
      "min": [
        -0.9969175457954407,
        -1.0,
        -0.9968501329421997
      ],
      "type": "VEC3"
    },
    {
      "bufferView": 1,
      "componentType": 5126,
      "count": 1177,
      "max": [
        1.0,
        1.0
      ],
      "min": [
        0.0,
        0.0
      ],
      "type": "VEC2"
    },
    {
      "bufferView": 0,
      "componentType": 5125,
      "count": 5088,
      "type": "SCALAR"
    },
    {
      "bufferView": 2,
      "byteOffset": 28248,
      "componentType": 5126,
      "count": 1177,
      "max": [
        0.021953053772449493,
        0.015254760161042213,
        0.025365062057971954
      ],
      "min": [
        -0.0017829518765211105,
        0.008254759013652802,
        -0.01941034197807312
      ],
      "type": "VEC3"
    },
    {
      "bufferView": 2,
      "byteOffset": 42372,
      "componentType": 5126,
      "count": 1177,
      "max": [
        0.9968296885490417,
        1.0,
        0.9969176650047302
      ],
      "min": [
        -0.9969175457954407,
        -1.0,
        -0.9968501329421997
      ],
      "type": "VEC3"
    },
    {
      "bufferView": 1,
      "byteOffset": 9416,
      "componentType": 5126,
      "count": 1177,
      "max": [
        1.0,
        1.0
      ],
      "min": [
        0.0,
        0.0
      ],
      "type": "VEC2"
    },
    {
      "bufferView": 0,
      "byteOffset": 20352,
      "componentType": 5125,
      "count": 5088,
      "type": "SCALAR"
    },
    {
      "bufferView": 2,
      "byteOffset": 56496,
      "componentType": 5126,
      "count": 17196,
      "max": [
        0.042022813111543655,
        0.010954546742141247,
        0.043533265590667725
      ],
      "min": [
        -0.043741967529058456,
        -0.012570436112582684,
        -0.04223151504993439
      ],
      "type": "VEC3"
    },
    {
      "bufferView": 2,
      "byteOffset": 262848,
      "componentType": 5126,
      "count": 17196,
      "max": [
        1.0,
        1.0,
        1.0
      ],
      "min": [
        -1.0,
        -1.0,
        -1.0
      ],
      "type": "VEC3"
    },
    {
      "bufferView": 1,
      "byteOffset": 18832,
      "componentType": 5126,
      "count": 17196,
      "max": [
        1.0000001192092896,
        1.0000001192092896
      ],
      "min": [
        0.0,
        0.0
      ],
      "type": "VEC2"
    },
    {
      "bufferView": 0,
      "byteOffset": 40704,
      "componentType": 5125,
      "count": 90624,
      "type": "SCALAR"
    }
  ],
  "asset": {
    "extras": {
      "author": "CobyPal (https://sketchfab.com/cobyp)",
      "license": "CC-BY-4.0 (http://creativecommons.org/licenses/by/4.0/)",
      "source": "https://sketchfab.com/3d-models/facebook-icon-two-sided-692d4301a7c64decae93cf14892d3edc",
      "title": "Facebook Icon - Two Sided"
    },
    "generator": "Sketchfab-16.99.0",
    "version": "2.0"
  },
  "bufferViews": [
    {
      "buffer": 0,
      "byteLength": 403200,
      "name": "floatBufferViews",
      "target": 34963
    },
    {
      "buffer": 0,
      "byteLength": 156400,
      "byteOffset": 403200,
      "byteStride": 8,
      "name": "floatBufferViews",
      "target": 34962
    },
    {
      "buffer": 0,
      "byteLength": 469200,
      "byteOffset": 559600,
      "byteStride": 12,
      "name": "floatBufferViews",
      "target": 34962
    }
  ],
  "buffers": [
    {
      "byteLength": 1028800,
      "uri": "scene.bin"
    }
  ],
  "materials": [
    {
      "doubleSided": true,
      "name": "glossy_putih.011",
      "pbrMetallicRoughness": {
        "baseColorFactor": [
          0.8,
          0.8,
          0.8,
          1.0
        ],
        "metallicFactor": 0.0,
        "roughnessFactor": 0.2
      }
    },
    {
      "doubleSided": true,
      "name": "glossy_fb",
      "pbrMetallicRoughness": {
        "baseColorFactor": [
          0.0544803,
          0.135633,
          0.445201,
          1.0
        ],
        "metallicFactor": 0.0,
        "roughnessFactor": 0.2
      }
    }
  ],
  "meshes": [
    {
      "name": "Object_0",
      "primitives": [
        {
          "attributes": {
            "NORMAL": 1,
            "POSITION": 0,
            "TEXCOORD_0": 2
          },
          "indices": 3,
          "material": 0,
          "mode": 4
        }
      ]
    },
    {
      "name": "Object_1",
      "primitives": [
        {
          "attributes": {
            "NORMAL": 5,
            "POSITION": 4,
            "TEXCOORD_0": 6
          },
          "indices": 7,
          "material": 0,
          "mode": 4
        }
      ]
    },
    {
      "name": "Object_2",
      "primitives": [
        {
          "attributes": {
            "NORMAL": 9,
            "POSITION": 8,
            "TEXCOORD_0": 10
          },
          "indices": 11,
          "material": 1,
          "mode": 4
        }
      ]
    }
  ],
  "nodes": [
    {
      "children": [
        1
      ],
      "matrix": [
        1.0,
        0.0,
        0.0,
        0.0,
        0.0,
        2.220446049250313e-16,
        -1.0,
        0.0,
        0.0,
        1.0,
        2.220446049250313e-16,
        0.0,
        0.0,
        0.0,
        0.0,
        1.0
      ],
      "name": "Sketchfab_model"
    },
    {
      "children": [
        2
      ],
      "name": "root"
    },
    {
      "children": [
        3
      ],
      "matrix": [
        1.0,
        0.0,
        0.0,
        0.0,
        0.0,
        2.220446049250313e-16,
        1.0,
        0.0,
        0.0,
        -1.0,
        2.220446049250313e-16,
        0.0,
        0.0,
        0.0,
        0.0,
        1.0
      ],
      "name": "GLTF_SceneRootNode"
    },
    {
      "children": [
        4
      ],
      "matrix": [
        1.0,
        0.0,
        -0.0,
        0.0,
        -0.0,
        0.0,
        -1.0,
        0.0,
        0.0,
        1.0,
        0.0,
        0.0,
        0.0,
        0.0,
        0.0,
        1.0
      ],
      "name": "Sketchfab_model_6"
    },
    {
      "children": [
        5
      ],
      "name": "root_5"
    },
    {
      "children": [
        6
      ],
      "matrix": [
        1.0,
        0.0,
        0.0,
        0.0,
        0.0,
        0.0,
        1.0,
        0.0,
        0.0,
        -1.0,
        0.0,
        0.0,
        0.0,
        0.0,
        0.0,
        1.0
      ],
      "name": "GLTF_SceneRootNode_4"
    },
    {
      "children": [
        7,
        9,
        11
      ],
      "matrix": [
        24.381351470947266,
        0.0,
        0.0,
        0.0,
        0.0,
        0.0,
        24.381351470947266,
        0.0,
        0.0,
        -24.381351470947266,
        0.0,
        0.0,
        0.0,
        3.0,
        6.0,
        1.0
      ],
      "name": "f_1_.001_0_3"
    },
    {
      "children": [
        8
      ],
      "matrix": [
        1.0,
        0.0,
        0.0,
        0.0,
        0.0,
        1.0,
        0.0,
        0.0,
        0.0,
        0.0,
        1.0,
        0.0,
        -0.006302570458501577,
        0.0,
        0.0,
        1.0
      ],
      "name": "Object_4_0"
    },
    {
      "mesh": 0,
      "name": "Object_8"
    },
    {
      "children": [
        10
      ],
      "matrix": [
        -0.9999365416251675,
        -0.011265554700055556,
        -0.0,
        0.0,
        0.011265554700055556,
        -0.9999365416251675,
        0.0,
        0.0,
        0.0,
        -0.0,
        1.0,
        0.0,
        0.0035114292986691,
        -0.0015743914991617203,
        0.0,
        1.0
      ],
      "name": "Object_4.001_1"
    },
    {
      "mesh": 1,
      "name": "Object_10"
    },
    {
      "children": [
        12
      ],
      "name": "Object_5_2"
    },
    {
      "mesh": 2,
      "name": "Object_12"
    }
  ],
  "scene": 0,
  "scenes": [
    {
      "name": "Sketchfab_Scene",
      "nodes": [
        0
      ]
    }
  ]
}
