{
  "accessors": [
    {
      "bufferView": 2,
      "componentType": 5126,
      "count": 1927,
      "max": [
        0.059638604521751404,
        0.04833230748772621,
        0.061391960829496384
      ],
      "min": [
        -0.06711860746145248,
        0.046332307159900665,
        -0.08285534381866455
      ],
      "type": "VEC3"
    },
    {
      "bufferView": 2,
      "byteOffset": 23124,
      "componentType": 5126,
      "count": 1927,
      "max": [
        1.0,
        1.0,
        0.9999457001686096
      ],
      "min": [
        -0.9999999403953552,
        -1.0,
        -1.0
      ],
      "type": "VEC3"
    },
    {
      "bufferView": 1,
      "componentType": 5126,
      "count": 1927,
      "max": [
        1.0,
        1.0
      ],
      "min": [
        0.0,
        0.0
      ],
      "type": "VEC2"
    },
    {
      "bufferView": 0,
      "componentType": 5125,
      "count": 3636,
      "type": "SCALAR"
    },
    {
      "bufferView": 2,
      "byteOffset": 46248,
      "componentType": 5126,
      "count": 1927,
      "max": [
        0.059638604521751404,
        0.04833230748772621,
        0.061391960829496384
      ],
      "min": [
        -0.06711860746145248,
        0.046332307159900665,
        -0.08285534381866455
      ],
      "type": "VEC3"
    },
    {
      "bufferView": 2,
      "byteOffset": 69372,
      "componentType": 5126,
      "count": 1927,
      "max": [
        1.0,
        1.0,
        0.9999457001686096
      ],
      "min": [
        -0.9999999403953552,
        -1.0,
        -1.0
      ],
      "type": "VEC3"
    },
    {
      "bufferView": 1,
      "byteOffset": 15416,
      "componentType": 5126,
      "count": 1927,
      "max": [
        1.0,
        1.0
      ],
      "min": [
        0.0,
        0.0
      ],
      "type": "VEC2"
    },
    {
      "bufferView": 0,
      "byteOffset": 14544,
      "componentType": 5125,
      "count": 3636,
      "type": "SCALAR"
    },
    {
      "bufferView": 2,
      "byteOffset": 92496,
      "componentType": 5126,
      "count": 1959,
      "max": [
        0.06568609178066254,
        0.05410144478082657,
        0.07106813788414001
      ],
      "min": [
        -0.06107112020254135,
        0.0381014421582222,
        -0.07317917048931122
      ],
      "type": "VEC3"
    },
    {
      "bufferView": 2,
      "byteOffset": 116004,
      "componentType": 5126,
      "count": 1959,
      "max": [
        1.0,
        1.0,
        0.9999457597732544
      ],
      "min": [
        -0.9999999403953552,
        -1.0,
        -1.0
      ],
      "type": "VEC3"
    },
    {
      "bufferView": 1,
      "byteOffset": 30832,
      "componentType": 5126,
      "count": 1959,
      "max": [
        1.0,
        1.0
      ],
      "min": [
        0.0,
        0.0
      ],
      "type": "VEC2"
    },
    {
      "bufferView": 0,
      "byteOffset": 29088,
      "componentType": 5125,
      "count": 3636,
      "type": "SCALAR"
    },
    {
      "bufferView": 2,
      "byteOffset": 139512,
      "componentType": 5126,
      "count": 1959,
      "max": [
        0.06568609178066254,
        0.05410144478082657,
        0.07106813788414001
      ],
      "min": [
        -0.06107112020254135,
        0.0381014421582222,
        -0.07317917048931122
      ],
      "type": "VEC3"
    },
    {
      "bufferView": 2,
      "byteOffset": 163020,
      "componentType": 5126,
      "count": 1959,
      "max": [
        1.0,
        1.0,
        0.9999457597732544
      ],
      "min": [
        -0.9999999403953552,
        -1.0,
        -1.0
      ],
      "type": "VEC3"
    },
    {
      "bufferView": 1,
      "byteOffset": 46504,
      "componentType": 5126,
      "count": 1959,
      "max": [
        1.0,
        1.0
      ],
      "min": [
        0.0,
        0.0
      ],
      "type": "VEC2"
    },
    {
      "bufferView": 0,
      "byteOffset": 43632,
      "componentType": 5125,
      "count": 3636,
      "type": "SCALAR"
    },
    {
      "bufferView": 2,
      "byteOffset": 186528,
      "componentType": 5126,
      "count": 1959,
      "max": [
        0.07023845613002777,
        0.050582677125930786,
        0.07602382451295853
      ],
      "min": [
        -0.05651875585317612,
        0.04858267679810524,
        -0.0682234838604927
      ],
      "type": "VEC3"
    },
    {
      "bufferView": 2,
      "byteOffset": 210036,
      "componentType": 5126,
      "count": 1959,
      "max": [
        1.0,
        1.0,
        0.9999457001686096
      ],
      "min": [
        -0.9999999403953552,
        -1.0,
        -1.0
      ],
      "type": "VEC3"
    },
    {
      "bufferView": 1,
      "byteOffset": 62176,
      "componentType": 5126,
      "count": 1959,
      "max": [
        1.0,
        1.0
      ],
      "min": [
        0.0,
        0.0
      ],
      "type": "VEC2"
    },
    {
      "bufferView": 0,
      "byteOffset": 58176,
      "componentType": 5125,
      "count": 3636,
      "type": "SCALAR"
    },
    {
      "bufferView": 2,
      "byteOffset": 233544,
      "componentType": 5126,
      "count": 1959,
      "max": [
        0.07023845613002777,
        0.050582677125930786,
        0.07602382451295853
      ],
      "min": [
        -0.05651875585317612,
        0.04858267679810524,
        -0.0682234838604927
      ],
      "type": "VEC3"
    },
    {
      "bufferView": 2,
      "byteOffset": 257052,
      "componentType": 5126,
      "count": 1959,
      "max": [
        1.0,
        1.0,
        0.9999457001686096
      ],
      "min": [
        -0.9999999403953552,
        -1.0,
        -1.0
      ],
      "type": "VEC3"
    },
    {
      "bufferView": 1,
      "byteOffset": 77848,
      "componentType": 5126,
      "count": 1959,
      "max": [
        1.0,
        1.0
      ],
      "min": [
        0.0,
        0.0
      ],
      "type": "VEC2"
    },
    {
      "bufferView": 0,
      "byteOffset": 72720,
      "componentType": 5125,
      "count": 3636,
      "type": "SCALAR"
    },
    {
      "bufferView": 2,
      "byteOffset": 280560,
      "componentType": 5126,
      "count": 17196,
      "max": [
        0.17436257004737854,
        0.038057517260313034,
        0.17360135912895203
      ],
      "min": [
        -0.17421302199363708,
        -0.05755556747317314,
        -0.1749742329120636
      ],
      "type": "VEC3"
    },
    {
      "bufferView": 2,
      "byteOffset": 486912,
      "componentType": 5126,
      "count": 17196,
      "max": [
        1.0,
        1.0,
        1.0
      ],
      "min": [
        -1.0,
        -1.0,
        -1.0
      ],
      "type": "VEC3"
    },
    {
      "bufferView": 1,
      "byteOffset": 93520,
      "componentType": 5126,
      "count": 17196,
      "max": [
        1.0000001192092896,
        1.0000001192092896
      ],
      "min": [
        0.0,
        0.0
      ],
      "type": "VEC2"
    },
    {
      "bufferView": 0,
      "byteOffset": 87264,
      "componentType": 5125,
      "count": 90624,
      "type": "SCALAR"
    }
  ],
  "asset": {
    "extras": {
      "author": "CobyPal (https://sketchfab.com/cobyp)",
      "license": "CC-BY-4.0 (http://creativecommons.org/licenses/by/4.0/)",
      "source": "https://sketchfab.com/3d-models/tiktok-icon-two-sided-449566c79c51436f8cb028456197a386",
      "title": "TikTok Icon - Two Sided"
    },
    "generator": "Sketchfab-16.99.0",
    "version": "2.0"
  },
  "bufferViews": [
    {
      "buffer": 0,
      "byteLength": 449760,
      "name": "floatBufferViews",
      "target": 34963
    },
    {
      "buffer": 0,
      "byteLength": 231088,
      "byteOffset": 449760,
      "byteStride": 8,
      "name": "floatBufferViews",
      "target": 34962
    },
    {
      "buffer": 0,
      "byteLength": 693264,
      "byteOffset": 680848,
      "byteStride": 12,
      "name": "floatBufferViews",
      "target": 34962
    }
  ],
  "buffers": [
    {
      "byteLength": 1374112,
      "uri": "scene.bin"
    }
  ],
  "materials": [
    {
      "doubleSided": true,
      "name": "tiktok_2_GLOSS",
      "pbrMetallicRoughness": {
        "baseColorFactor": [
          0.0185001,
          0.904661,
          0.854993,
          1.0
        ],
        "metallicFactor": 0.0,
        "roughnessFactor": 0.2
      }
    },
    {
      "doubleSided": true,
      "name": "glossy_tiktok",
      "pbrMetallicRoughness": {
        "baseColorFactor": [
          0.0,
          0.0,
          0.0,
          1.0
        ],
        "metallicFactor": 0.0,
        "roughnessFactor": 0.2
      }
    },
    {
      "doubleSided": true,
      "name": "tiktok_3_GLOSS",
      "pbrMetallicRoughness": {
        "baseColorFactor": [
          0.991102,
          0.0251867,
          0.0908417,
          1.0
        ],
        "metallicFactor": 0.0,
        "roughnessFactor": 0.2
      }
    },
    {
      "doubleSided": true,
      "name": "glossy_putih",
      "pbrMetallicRoughness": {
        "baseColorFactor": [
          0.8,
          0.8,
          0.8,
          1.0
        ],
        "metallicFactor": 0.0,
        "roughnessFactor": 0.2
      }
    }
  ],
  "meshes": [
    {
      "name": "Object_0",
      "primitives": [
        {
          "attributes": {
            "NORMAL": 1,
            "POSITION": 0,
            "TEXCOORD_0": 2
          },
          "indices": 3,
          "material": 0,
          "mode": 4
        }
      ]
    },
    {
      "name": "Object_1",
      "primitives": [
        {
          "attributes": {
            "NORMAL": 5,
            "POSITION": 4,
            "TEXCOORD_0": 6
          },
          "indices": 7,
          "material": 0,
          "mode": 4
        }
      ]
    },
    {
      "name": "Object_2",
      "primitives": [
        {
          "attributes": {
            "NORMAL": 9,
            "POSITION": 8,
            "TEXCOORD_0": 10
          },
          "indices": 11,
          "material": 1,
          "mode": 4
        }
      ]
    },
    {
      "name": "Object_3",
      "primitives": [
        {
          "attributes": {
            "NORMAL": 13,
            "POSITION": 12,
            "TEXCOORD_0": 14
          },
          "indices": 15,
          "material": 1,
          "mode": 4
        }
      ]
    },
    {
      "name": "Object_4",
      "primitives": [
        {
          "attributes": {
            "NORMAL": 17,
            "POSITION": 16,
            "TEXCOORD_0": 18
          },
          "indices": 19,
          "material": 2,
          "mode": 4
        }
      ]
    },
    {
      "name": "Object_5",
      "primitives": [
        {
          "attributes": {
            "NORMAL": 21,
            "POSITION": 20,
            "TEXCOORD_0": 22
          },
          "indices": 23,
          "material": 2,
          "mode": 4
        }
      ]
    },
    {
      "name": "Object_6",
      "primitives": [
        {
          "attributes": {
            "NORMAL": 25,
            "POSITION": 24,
            "TEXCOORD_0": 26
          },
          "indices": 27,
          "material": 3,
          "mode": 4
        }
      ]
    }
  ],
  "nodes": [
    {
      "children": [
        1
      ],
      "matrix": [
        1.0,
        0.0,
        0.0,
        0.0,
        0.0,
        2.220446049250313e-16,
        -1.0,
        0.0,
        0.0,
        1.0,
        2.220446049250313e-16,
        0.0,
        0.0,
        0.0,
        0.0,
        1.0
      ],
      "name": "Sketchfab_model"
    },
    {
      "children": [
        2
      ],
      "name": "root"
    },
    {
      "children": [
        3
      ],
      "matrix": [
        1.0,
        0.0,
        0.0,
        0.0,
        0.0,
        2.220446049250313e-16,
        1.0,
        0.0,
        0.0,
        -1.0,
        2.220446049250313e-16,
        0.0,
        0.0,
        0.0,
        0.0,
        1.0
      ],
      "name": "GLTF_SceneRootNode"
    },
    {
      "children": [
        4
      ],
      "matrix": [
        1.0,
        0.0,
        -0.0,
        0.0,
        -0.0,
        0.0,
        -1.0,
        0.0,
        0.0,
        1.0,
        0.0,
        0.0,
        0.0,
        0.0,
        0.0,
        1.0
      ],
      "name": "Sketchfab_model_10"
    },
    {
      "children": [
        5
      ],
      "name": "root_9"
    },
    {
      "children": [
        6
      ],
      "matrix": [
        1.0,
        0.0,
        0.0,
        0.0,
        0.0,
        0.0,
        1.0,
        0.0,
        0.0,
        -1.0,
        0.0,
        0.0,
        0.0,
        0.0,
        0.0,
        1.0
      ],
      "name": "GLTF_SceneRootNode_8"
    },
    {
      "children": [
        7,
        9,
        11,
        13,
        15,
        17,
        19
      ],
      "matrix": [
        5.998876571655273,
        0.0,
        0.0,
        0.0,
        0.0,
        0.0,
        5.998874664306641,
        0.0,
        0.0,
        -5.998876571655273,
        0.0,
        0.0,
        0.0,
        3.0,
        6.0,
        1.0
      ],
      "name": "Curve.017_0_7"
    },
    {
      "children": [
        8
      ],
      "name": "Object_4_0"
    },
    {
      "mesh": 0,
      "name": "Object_8"
    },
    {
      "children": [
        10
      ],
      "matrix": [
        -0.9994752606445272,
        -0.03239140873062793,
        -0.0,
        0.0,
        0.03239140873062793,
        -0.9994752606445272,
        0.0,
        0.0,
        0.0,
        -0.0,
        1.0,
        0.0,
        0.0,
        -0.015596428886055946,
        0.0,
        1.0
      ],
      "name": "Object_4.001_1"
    },
    {
      "mesh": 1,
      "name": "Object_10"
    },
    {
      "children": [
        12
      ],
      "name": "Object_5_2"
    },
    {
      "mesh": 2,
      "name": "Object_12"
    },
    {
      "children": [
        14
      ],
      "matrix": [
        -0.9994752606445272,
        -0.03239140873062793,
        -0.0,
        0.0,
        0.03239140873062793,
        -0.9994752606445272,
        0.0,
        0.0,
        0.0,
        -0.0,
        1.0,
        0.0,
        0.0,
        -0.015596428886055946,
        0.0,
        1.0
      ],
      "name": "Object_5.001_3"
    },
    {
      "mesh": 3,
      "name": "Object_14"
    },
    {
      "children": [
        16
      ],
      "name": "Object_6_4"
    },
    {
      "mesh": 4,
      "name": "Object_16"
    },
    {
      "children": [
        18
      ],
      "matrix": [
        -0.9994752606445272,
        -0.03239140873062793,
        -0.0,
        0.0,
        0.03239140873062793,
        -0.9994752606445272,
        0.0,
        0.0,
        0.0,
        -0.0,
        1.0,
        0.0,
        0.0,
        -0.015596428886055946,
        0.0,
        1.0
      ],
      "name": "Object_6.001_5"
    },
    {
      "mesh": 5,
      "name": "Object_18"
    },
    {
      "children": [
        20
      ],
      "name": "Object_7_6"
    },
    {
      "mesh": 6,
      "name": "Object_20"
    }
  ],
  "scene": 0,
  "scenes": [
    {
      "name": "Sketchfab_Scene",
      "nodes": [
        0
      ]
    }
  ]
}
