{
  "accessors": [
    {
      "bufferView": 2,
      "componentType": 5126,
      "count": 7371,
      "max": [
        0.9920442700386047,
        0.22559277713298798,
        0.9922541379928589
      ],
      "min": [
        -0.9942095875740051,
        -0.4547262191772461,
        -0.993999719619751
      ],
      "type": "VEC3"
    },
    {
      "bufferView": 2,
      "byteOffset": 88452,
      "componentType": 5126,
      "count": 7371,
      "max": [
        1.0,
        1.0,
        1.0
      ],
      "min": [
        -1.0,
        -1.0,
        -1.0
      ],
      "type": "VEC3"
    },
    {
      "bufferView": 1,
      "componentType": 5126,
      "count": 7371,
      "max": [
        1.0000001192092896,
        0.9671356678009033
      ],
      "min": [
        0.0,
        -1.1920928955078125e-07
      ],
      "type": "VEC2"
    },
    {
      "bufferView": 0,
      "componentType": 5125,
      "count": 35328,
      "type": "SCALAR"
    },
    {
      "bufferView": 2,
      "byteOffset": 176904,
      "componentType": 5126,
      "count": 9870,
      "max": [
        1.2390331029891968,
        -0.004461981356143951,
        1.2392430305480957
      ],
      "min": [
        -1.2411984205245972,
        -0.22136491537094116,
        -1.2409884929656982
      ],
      "type": "VEC3"
    },
    {
      "bufferView": 2,
      "byteOffset": 295344,
      "componentType": 5126,
      "count": 9870,
      "max": [
        1.0,
        0.9999998211860657,
        1.0
      ],
      "min": [
        -1.0,
        -0.9999998211860657,
        -1.0
      ],
      "type": "VEC3"
    },
    {
      "bufferView": 1,
      "byteOffset": 58968,
      "componentType": 5126,
      "count": 9870,
      "max": [
        1.0000001192092896,
        1.0
      ],
      "min": [
        8.881784197001252e-16,
        -1.1920928955078125e-07
      ],
      "type": "VEC2"
    },
    {
      "bufferView": 0,
      "byteOffset": 141312,
      "componentType": 5125,
      "count": 55296,
      "type": "SCALAR"
    },
    {
      "bufferView": 2,
      "byteOffset": 413784,
      "componentType": 5126,
      "count": 12285,
      "max": [
        0.6713934540748596,
        0.4463537335395813,
        0.7008441686630249
      ],
      "min": [
        -0.6952238082885742,
        0.19630067050457,
        -0.6657463312149048
      ],
      "type": "VEC3"
    },
    {
      "bufferView": 2,
      "byteOffset": 561204,
      "componentType": 5126,
      "count": 12285,
      "max": [
        0.9969242811203003,
        1.0,
        0.9969244599342346
      ],
      "min": [
        -0.9969242811203003,
        -1.0,
        -0.9969245195388794
      ],
      "type": "VEC3"
    },
    {
      "bufferView": 1,
      "byteOffset": 137928,
      "componentType": 5126,
      "count": 12285,
      "max": [
        1.0,
        1.0
      ],
      "min": [
        0.0,
        0.0
      ],
      "type": "VEC2"
    },
    {
      "bufferView": 0,
      "byteOffset": 362496,
      "componentType": 5125,
      "count": 50100,
      "type": "SCALAR"
    },
    {
      "bufferView": 2,
      "byteOffset": 708624,
      "componentType": 5126,
      "count": 12285,
      "max": [
        0.6713934540748596,
        0.4463537335395813,
        0.7008441686630249
      ],
      "min": [
        -0.6952238082885742,
        0.19630067050457,
        -0.6657463312149048
      ],
      "type": "VEC3"
    },
    {
      "bufferView": 2,
      "byteOffset": 856044,
      "componentType": 5126,
      "count": 12285,
      "max": [
        0.9969242811203003,
        1.0,
        0.9969244599342346
      ],
      "min": [
        -0.9969242811203003,
        -1.0,
        -0.9969245195388794
      ],
      "type": "VEC3"
    },
    {
      "bufferView": 1,
      "byteOffset": 236208,
      "componentType": 5126,
      "count": 12285,
      "max": [
        1.0,
        1.0
      ],
      "min": [
        0.0,
        0.0
      ],
      "type": "VEC2"
    },
    {
      "bufferView": 0,
      "byteOffset": 562896,
      "componentType": 5125,
      "count": 50100,
      "type": "SCALAR"
    }
  ],
  "asset": {
    "extras": {
      "author": "CobyPal (https://sketchfab.com/cobyp)",
      "license": "CC-BY-4.0 (http://creativecommons.org/licenses/by/4.0/)",
      "source": "https://sketchfab.com/3d-models/instagram-icon-two-sided-7582e51a6c744e42af4219afa61f1a39",
      "title": "Instagram Icon - two sided"
    },
    "generator": "Sketchfab-16.99.0",
    "version": "2.0"
  },
  "bufferViews": [
    {
      "buffer": 0,
      "byteLength": 763296,
      "name": "floatBufferViews",
      "target": 34963
    },
    {
      "buffer": 0,
      "byteLength": 334488,
      "byteOffset": 763296,
      "byteStride": 8,
      "name": "floatBufferViews",
      "target": 34962
    },
    {
      "buffer": 0,
      "byteLength": 1003464,
      "byteOffset": 1097784,
      "byteStride": 12,
      "name": "floatBufferViews",
      "target": 34962
    }
  ],
  "buffers": [
    {
      "byteLength": 2101248,
      "uri": "scene.bin"
    }
  ],
  "materials": [
    {
      "doubleSided": true,
      "name": "glossy_ig",
      "pbrMetallicRoughness": {
        "baseColorFactor": [
          0.723055,
          0.0231533,
          0.198069,
          1.0
        ],
        "metallicFactor": 0.0,
        "roughnessFactor": 0.2
      }
    },
    {
      "doubleSided": true,
      "name": "glossy_putih",
      "pbrMetallicRoughness": {
        "baseColorFactor": [
          0.8,
          0.8,
          0.8,
          1.0
        ],
        "metallicFactor": 0.0,
        "roughnessFactor": 0.2
      }
    },
    {
      "doubleSided": true,
      "name": "glossy_putih.001",
      "pbrMetallicRoughness": {
        "baseColorFactor": [
          0.8,
          0.8,
          0.8,
          1.0
        ],
        "metallicFactor": 0.0,
        "roughnessFactor": 0.2
      }
    }
  ],
  "meshes": [
    {
      "name": "Object_0",
      "primitives": [
        {
          "attributes": {
            "NORMAL": 1,
            "POSITION": 0,
            "TEXCOORD_0": 2
          },
          "indices": 3,
          "material": 0,
          "mode": 4
        }
      ]
    },
    {
      "name": "Object_1",
      "primitives": [
        {
          "attributes": {
            "NORMAL": 5,
            "POSITION": 4,
            "TEXCOORD_0": 6
          },
          "indices": 7,
          "material": 0,
          "mode": 4
        }
      ]
    },
    {
      "name": "Object_2",
      "primitives": [
        {
          "attributes": {
            "NORMAL": 9,
            "POSITION": 8,
            "TEXCOORD_0": 10
          },
          "indices": 11,
          "material": 1,
          "mode": 4
        }
      ]
    },
    {
      "name": "Object_3",
      "primitives": [
        {
          "attributes": {
            "NORMAL": 13,
            "POSITION": 12,
            "TEXCOORD_0": 14
          },
          "indices": 15,
          "material": 2,
          "mode": 4
        }
      ]
    }
  ],
  "nodes": [
    {
      "children": [
        1
      ],
      "matrix": [
        1.0,
        0.0,
        0.0,
        0.0,
        0.0,
        2.220446049250313e-16,
        -1.0,
        0.0,
        0.0,
        1.0,
        2.220446049250313e-16,
        0.0,
        0.0,
        0.0,
        0.0,
        1.0
      ],
      "name": "Sketchfab_model"
    },
    {
      "children": [
        2
      ],
      "name": "root"
    },
    {
      "children": [
        3,
        15
      ],
      "matrix": [
        1.0,
        0.0,
        0.0,
        0.0,
        0.0,
        2.220446049250313e-16,
        1.0,
        0.0,
        0.0,
        -1.0,
        2.220446049250313e-16,
        0.0,
        0.0,
        0.0,
        0.0,
        1.0
      ],
      "name": "GLTF_SceneRootNode"
    },
    {
      "children": [
        4
      ],
      "matrix": [
        1.0,
        0.0,
        -0.0,
        0.0,
        -0.0,
        0.0,
        -1.0,
        0.0,
        0.0,
        1.0,
        0.0,
        0.0,
        0.0,
        0.0,
        0.0,
        1.0
      ],
      "name": "Sketchfab_model_8"
    },
    {
      "children": [
        5
      ],
      "name": "root_7"
    },
    {
      "children": [
        6,
        9,
        12
      ],
      "matrix": [
        1.0,
        0.0,
        0.0,
        0.0,
        0.0,
        0.0,
        1.0,
        0.0,
        0.0,
        -1.0,
        0.0,
        0.0,
        0.0,
        0.0,
        0.0,
        1.0
      ],
      "name": "GLTF_SceneRootNode_6"
    },
    {
      "children": [
        7
      ],
      "matrix": [
        0.8430913090705872,
        0.0,
        0.0,
        0.0,
        0.0,
        0.0,
        0.8430913090705872,
        0.0,
        0.0,
        -0.8430910706520081,
        0.0,
        0.0,
        0.0,
        3.0,
        6.0,
        1.0
      ],
      "name": "Cylinder.023_3_1"
    },
    {
      "children": [
        8
      ],
      "name": "Object_8_0"
    },
    {
      "mesh": 0,
      "name": "Object_8"
    },
    {
      "children": [
        10
      ],
      "matrix": [
        0.8430913090705872,
        0.0,
        0.0,
        0.0,
        0.0,
        0.0,
        0.8430913090705872,
        0.0,
        0.0,
        -0.8430910706520081,
        0.0,
        0.0,
        0.0,
        3.0,
        6.0,
        1.0
      ],
      "name": "Cylinder.042_2_3"
    },
    {
      "children": [
        11
      ],
      "name": "Object_6_2"
    },
    {
      "mesh": 1,
      "name": "Object_11"
    },
    {
      "children": [
        13
      ],
      "matrix": [
        0.685046374797821,
        0.0,
        0.0,
        0.0,
        0.0,
        0.0,
        0.685046374797821,
        0.0,
        0.0,
        -0.6850461959838867,
        0.0,
        0.0,
        0.0,
        3.0183937549591064,
        6.0,
        1.0
      ],
      "name": "Cylinder.043_1_5"
    },
    {
      "children": [
        14
      ],
      "name": "Object_4_4"
    },
    {
      "mesh": 2,
      "name": "Object_14"
    },
    {
      "children": [
        16
      ],
      "matrix": [
        0.685046374797821,
        0.0,
        0.0,
        0.0,
        0.0,
        0.0,
        0.685046374797821,
        0.0,
        0.0,
        -0.6850461959838867,
        0.0,
        0.0,
        0.0,
        3.0183937549591064,
        6.0,
        1.0
      ],
      "name": "Cylinder.043_1.001_10"
    },
    {
      "children": [
        17
      ],
      "matrix": [
        1.0,
        0.0,
        0.0,
        0.0,
        0.0,
        1.0,
        0.0,
        0.0,
        0.0,
        0.0,
        1.0,
        0.0,
        0.0,
        -0.9696396589279175,
        0.0,
        1.0
      ],
      "name": "Object_4.001_9"
    },
    {
      "mesh": 3,
      "name": "Object_17"
    }
  ],
  "scene": 0,
  "scenes": [
    {
      "name": "Sketchfab_Scene",
      "nodes": [
        0
      ]
    }
  ]
}
