{
  "accessors": [
    {
      "bufferView": 2,
      "componentType": 5126,
      "count": 8090,
      "max": [
        0.023254556581377983,
        0.005499999970197678,
        0.02827412262558937
      ],
      "min": [
        -0.02448645792901516,
        -0.005499999970197678,
        -0.026902206242084503
      ],
      "type": "VEC3"
    },
    {
      "bufferView": 2,
      "byteOffset": 97080,
      "componentType": 5126,
      "count": 8090,
      "max": [
        0.9992797374725342,
        1.0,
        0.996917724609375
      ],
      "min": [
        -1.0,
        -1.0,
        -0.9969177842140198
      ],
      "type": "VEC3"
    },
    {
      "bufferView": 1,
      "componentType": 5126,
      "count": 8090,
      "max": [
        1.0,
        1.0
      ],
      "min": [
        0.0,
        0.0
      ],
      "type": "VEC2"
    },
    {
      "bufferView": 0,
      "componentType": 5125,
      "count": 35874,
      "type": "SCALAR"
    },
    {
      "bufferView": 2,
      "byteOffset": 194160,
      "componentType": 5126,
      "count": 8090,
      "max": [
        0.023254556581377983,
        0.005499999970197678,
        0.02827412262558937
      ],
      "min": [
        -0.02448645792901516,
        -0.005499999970197678,
        -0.026902206242084503
      ],
      "type": "VEC3"
    },
    {
      "bufferView": 2,
      "byteOffset": 291240,
      "componentType": 5126,
      "count": 8090,
      "max": [
        0.9992797374725342,
        1.0,
        0.996917724609375
      ],
      "min": [
        -1.0,
        -1.0,
        -0.9969177842140198
      ],
      "type": "VEC3"
    },
    {
      "bufferView": 1,
      "byteOffset": 64720,
      "componentType": 5126,
      "count": 8090,
      "max": [
        1.0,
        1.0
      ],
      "min": [
        0.0,
        0.0
      ],
      "type": "VEC2"
    },
    {
      "bufferView": 0,
      "byteOffset": 143496,
      "componentType": 5125,
      "count": 35874,
      "type": "SCALAR"
    },
    {
      "bufferView": 2,
      "byteOffset": 388320,
      "componentType": 5126,
      "count": 17196,
      "max": [
        0.059512101113796234,
        -0.00022874772548675537,
        0.05989748612046242
      ],
      "min": [
        -0.060428887605667114,
        -0.033128149807453156,
        -0.06004347279667854
      ],
      "type": "VEC3"
    },
    {
      "bufferView": 2,
      "byteOffset": 594672,
      "componentType": 5126,
      "count": 17196,
      "max": [
        1.0,
        1.0,
        1.0
      ],
      "min": [
        -1.0,
        -1.0,
        -1.0
      ],
      "type": "VEC3"
    },
    {
      "bufferView": 1,
      "byteOffset": 129440,
      "componentType": 5126,
      "count": 17196,
      "max": [
        1.0000001192092896,
        1.0000001192092896
      ],
      "min": [
        0.0,
        0.0
      ],
      "type": "VEC2"
    },
    {
      "bufferView": 0,
      "byteOffset": 286992,
      "componentType": 5125,
      "count": 90624,
      "type": "SCALAR"
    }
  ],
  "asset": {
    "extras": {
      "author": "CobyPal (https://sketchfab.com/cobyp)",
      "license": "CC-BY-4.0 (http://creativecommons.org/licenses/by/4.0/)",
      "source": "https://sketchfab.com/3d-models/threads-icon-two-sided-dd426c5fdcee446599b56ffab3723cb2",
      "title": "Threads Icon - Two Sided"
    },
    "generator": "Sketchfab-16.99.0",
    "version": "2.0"
  },
  "bufferViews": [
    {
      "buffer": 0,
      "byteLength": 649488,
      "name": "floatBufferViews",
      "target": 34963
    },
    {
      "buffer": 0,
      "byteLength": 267008,
      "byteOffset": 649488,
      "byteStride": 8,
      "name": "floatBufferViews",
      "target": 34962
    },
    {
      "buffer": 0,
      "byteLength": 801024,
      "byteOffset": 916496,
      "byteStride": 12,
      "name": "floatBufferViews",
      "target": 34962
    }
  ],
  "buffers": [
    {
      "byteLength": 1717520,
      "uri": "scene.bin"
    }
  ],
  "materials": [
    {
      "doubleSided": true,
      "name": "glossy_putih",
      "pbrMetallicRoughness": {
        "baseColorFactor": [
          0.8,
          0.8,
          0.8,
          1.0
        ],
        "metallicFactor": 0.0,
        "roughnessFactor": 0.2
      }
    },
    {
      "doubleSided": true,
      "name": "glossy_tiktok",
      "pbrMetallicRoughness": {
        "baseColorFactor": [
          0.0,
          0.0,
          0.0,
          1.0
        ],
        "metallicFactor": 0.0,
        "roughnessFactor": 0.2
      }
    }
  ],
  "meshes": [
    {
      "name": "Object_0",
      "primitives": [
        {
          "attributes": {
            "NORMAL": 1,
            "POSITION": 0,
            "TEXCOORD_0": 2
          },
          "indices": 3,
          "material": 0,
          "mode": 4
        }
      ]
    },
    {
      "name": "Object_1",
      "primitives": [
        {
          "attributes": {
            "NORMAL": 5,
            "POSITION": 4,
            "TEXCOORD_0": 6
          },
          "indices": 7,
          "material": 0,
          "mode": 4
        }
      ]
    },
    {
      "name": "Object_2",
      "primitives": [
        {
          "attributes": {
            "NORMAL": 9,
            "POSITION": 8,
            "TEXCOORD_0": 10
          },
          "indices": 11,
          "material": 1,
          "mode": 4
        }
      ]
    }
  ],
  "nodes": [
    {
      "children": [
        1
      ],
      "matrix": [
        1.0,
        0.0,
        0.0,
        0.0,
        0.0,
        2.220446049250313e-16,
        -1.0,
        0.0,
        0.0,
        1.0,
        2.220446049250313e-16,
        0.0,
        0.0,
        0.0,
        0.0,
        1.0
      ],
      "name": "Sketchfab_model"
    },
    {
      "children": [
        2
      ],
      "name": "root"
    },
    {
      "children": [
        3
      ],
      "matrix": [
        1.0,
        0.0,
        0.0,
        0.0,
        0.0,
        2.220446049250313e-16,
        1.0,
        0.0,
        0.0,
        -1.0,
        2.220446049250313e-16,
        0.0,
        0.0,
        0.0,
        0.0,
        1.0
      ],
      "name": "GLTF_SceneRootNode"
    },
    {
      "children": [
        4
      ],
      "matrix": [
        1.0,
        0.0,
        -0.0,
        0.0,
        -0.0,
        0.0,
        -1.0,
        0.0,
        0.0,
        1.0,
        0.0,
        0.0,
        0.0,
        0.0,
        0.0,
        1.0
      ],
      "name": "Sketchfab_model_6"
    },
    {
      "children": [
        5
      ],
      "name": "root_5"
    },
    {
      "children": [
        6
      ],
      "matrix": [
        1.0,
        0.0,
        0.0,
        0.0,
        0.0,
        0.0,
        1.0,
        0.0,
        0.0,
        -1.0,
        0.0,
        0.0,
        0.0,
        0.0,
        0.0,
        1.0
      ],
      "name": "GLTF_SceneRootNode_4"
    },
    {
      "children": [
        7,
        9,
        11
      ],
      "matrix": [
        17.4340877532959,
        0.0,
        0.0,
        0.0,
        0.0,
        0.0,
        17.4340877532959,
        0.0,
        0.0,
        -17.4340877532959,
        0.0,
        0.0,
        0.007078892085701227,
        2.9994633197784424,
        6.194183349609375,
        1.0
      ],
      "name": "Curve.023_0_3"
    },
    {
      "children": [
        8
      ],
      "name": "Object_4_0"
    },
    {
      "mesh": 0,
      "name": "Object_8"
    },
    {
      "children": [
        10
      ],
      "matrix": [
        -0.9999959053983671,
        -0.002861675470700743,
        -0.0,
        0.0,
        0.002861675470700743,
        -0.9999959053983671,
        0.0,
        0.0,
        0.0,
        -0.0,
        1.0,
        0.0,
        0.0,
        -0.03265763819217682,
        0.0,
        1.0
      ],
      "name": "Object_4.001_1"
    },
    {
      "mesh": 1,
      "name": "Object_10"
    },
    {
      "children": [
        12
      ],
      "name": "Object_5_2"
    },
    {
      "mesh": 2,
      "name": "Object_12"
    }
  ],
  "scene": 0,
  "scenes": [
    {
      "name": "Sketchfab_Scene",
      "nodes": [
        0
      ]
    }
  ]
}
